<?xml version="1.0"?>
<svg xmlns="http://www.w3.org/2000/svg" xmlns:xlink="http://www.w3.org/1999/xlink" version="1.1" id="Layer_1" x="0px" y="0px" viewBox="0 0 455 455" style="enable-background:new 0 0 455 455;" xml:space="preserve" width="512px" height="512px" class=""><g><g>
	<path d="M239.617,96.701c-4.959,0.81-40.899,8.884-40.899,71.393   c0,28.536,7.16,45.725,15.384,56.06c7.921,9.948,20.203,15.413,32.918,15.413h22.249V96.62h-28.596   C240.318,96.62,239.973,96.641,239.617,96.701z" data-original="#000000" class="active-path" data-old_color="#000000" fill="#FF0000"/>
	<path d="M0,0v455h455V0H0z M303.619,385h-33.414V267.415h-23.518L193.466,385   h-42.085l66.839-120.68c0,0-56.312-25.99-56.312-90.354C161.908,109.611,206.782,70,244.446,70h59.173V385z" data-original="#000000" class="active-path" data-old_color="#000000" fill="#FF0000"/>
</g></g> </svg>
